<mxfile host="Electron" agent="Mozilla/5.0 (Windows NT 10.0; Win64; x64) AppleWebKit/537.36 (KHTML, like Gecko) draw.io/24.7.8 Chrome/128.0.6613.36 Electron/32.0.1 Safari/537.36" version="24.7.8">
  <diagram name="Page-1" id="e7e014a7-5840-1c2e-5031-d8a46d1fe8dd">
    <mxGraphModel dx="1195" dy="697" grid="1" gridSize="10" guides="1" tooltips="1" connect="1" arrows="1" fold="1" page="1" pageScale="1" pageWidth="1169" pageHeight="826" background="none" math="0" shadow="0">
      <root>
        <mxCell id="0" />
        <mxCell id="1" parent="0" />
        <mxCell id="2" value="Usuario(Empresa)" style="swimlane;whiteSpace=wrap" parent="1" vertex="1">
          <mxGeometry x="200" y="128" width="244.5" height="352" as="geometry" />
        </mxCell>
        <mxCell id="rKxaWFywnccqhRgFFz-8-44" style="edgeStyle=orthogonalEdgeStyle;rounded=0;orthogonalLoop=1;jettySize=auto;html=1;strokeColor=#ff0000;" edge="1" parent="2" source="5" target="rKxaWFywnccqhRgFFz-8-42">
          <mxGeometry relative="1" as="geometry" />
        </mxCell>
        <mxCell id="5" value="" style="ellipse;shape=startState;fillColor=#000000;strokeColor=#ff0000;" parent="2" vertex="1">
          <mxGeometry x="107.25" y="40" width="30" height="30" as="geometry" />
        </mxCell>
        <mxCell id="rKxaWFywnccqhRgFFz-8-42" value="Inicialização do sistema" style="rounded=0;whiteSpace=wrap;html=1;" vertex="1" parent="2">
          <mxGeometry x="62.25" y="92" width="120" height="60" as="geometry" />
        </mxCell>
        <mxCell id="rKxaWFywnccqhRgFFz-8-50" style="edgeStyle=orthogonalEdgeStyle;rounded=0;orthogonalLoop=1;jettySize=auto;html=1;entryX=0.5;entryY=0;entryDx=0;entryDy=0;strokeColor=#ff0000;" edge="1" parent="2" source="rKxaWFywnccqhRgFFz-8-43" target="rKxaWFywnccqhRgFFz-8-48">
          <mxGeometry relative="1" as="geometry" />
        </mxCell>
        <mxCell id="rKxaWFywnccqhRgFFz-8-43" value="Acionamento do sistema de reconhecimento" style="rounded=0;whiteSpace=wrap;html=1;" vertex="1" parent="2">
          <mxGeometry x="62.25" y="202" width="120" height="60" as="geometry" />
        </mxCell>
        <mxCell id="rKxaWFywnccqhRgFFz-8-48" value="" style="ellipse;html=1;shape=endState;fillColor=#000000;strokeColor=#ff0000;" vertex="1" parent="2">
          <mxGeometry x="107.25" y="302" width="30" height="30" as="geometry" />
        </mxCell>
        <mxCell id="3" value="Sistema" style="swimlane;whiteSpace=wrap" parent="1" vertex="1">
          <mxGeometry x="444.5" y="128" width="265.5" height="352" as="geometry" />
        </mxCell>
        <mxCell id="rKxaWFywnccqhRgFFz-8-41" value="Iniação da Tela" style="rounded=0;whiteSpace=wrap;html=1;" vertex="1" parent="3">
          <mxGeometry x="72.75" y="152" width="120" height="60" as="geometry" />
        </mxCell>
        <mxCell id="rKxaWFywnccqhRgFFz-8-46" style="edgeStyle=orthogonalEdgeStyle;rounded=0;orthogonalLoop=1;jettySize=auto;html=1;entryX=0.5;entryY=0;entryDx=0;entryDy=0;" edge="1" parent="1" source="rKxaWFywnccqhRgFFz-8-41" target="rKxaWFywnccqhRgFFz-8-43">
          <mxGeometry relative="1" as="geometry" />
        </mxCell>
        <mxCell id="rKxaWFywnccqhRgFFz-8-49" style="edgeStyle=orthogonalEdgeStyle;rounded=0;orthogonalLoop=1;jettySize=auto;html=1;entryX=0.5;entryY=0;entryDx=0;entryDy=0;" edge="1" parent="1" source="rKxaWFywnccqhRgFFz-8-42" target="rKxaWFywnccqhRgFFz-8-41">
          <mxGeometry relative="1" as="geometry" />
        </mxCell>
      </root>
    </mxGraphModel>
  </diagram>
</mxfile>
